<svg width="20" height="20" viewBox="0 0 20 20" fill="none" xmlns="http://www.w3.org/2000/svg">
<path d="M16.6666 3.33325H3.33329C2.41663 3.33325 1.67496 4.08325 1.67496 4.99992L1.66663 14.9999C1.66663 15.9166 2.41663 16.6666 3.33329 16.6666H16.6666C17.5833 16.6666 18.3333 15.9166 18.3333 14.9999V4.99992C18.3333 4.08325 17.5833 3.33325 16.6666 3.33325ZM16.3333 6.87492L10.4416 10.5583C10.175 10.7249 9.82496 10.7249 9.55829 10.5583L3.66663 6.87492C3.58307 6.82801 3.50989 6.76464 3.45153 6.68863C3.39317 6.61262 3.35084 6.52557 3.32711 6.43273C3.30337 6.33989 3.29871 6.2432 3.31342 6.14851C3.32813 6.05382 3.36191 5.9631 3.41269 5.88184C3.46348 5.80058 3.53023 5.73046 3.6089 5.67575C3.68757 5.62103 3.77652 5.58284 3.87037 5.5635C3.96423 5.54416 4.06103 5.54406 4.15492 5.56321C4.24881 5.58236 4.33785 5.62036 4.41663 5.67492L9.99996 9.16658L15.5833 5.67492C15.6621 5.62036 15.7511 5.58236 15.845 5.56321C15.9389 5.54406 16.0357 5.54416 16.1295 5.5635C16.2234 5.58284 16.3124 5.62103 16.391 5.67575C16.4697 5.73046 16.5364 5.80058 16.5872 5.88184C16.638 5.9631 16.6718 6.05382 16.6865 6.14851C16.7012 6.2432 16.6966 6.33989 16.6728 6.43273C16.6491 6.52557 16.6067 6.61262 16.5484 6.68863C16.49 6.76464 16.4169 6.82801 16.3333 6.87492Z" fill="#BDBDBD"/>
</svg>
